<svg width="32" height="32" viewBox="0 0 32 32" fill="none" xmlns="http://www.w3.org/2000/svg">
<path d="M16 5.33341C16.7364 5.33341 17.3334 4.73646 17.3334 4.00008C17.3334 3.2637 16.7364 2.66675 16 2.66675C15.2636 2.66675 14.6667 3.2637 14.6667 4.00008C14.6667 4.73646 15.2636 5.33341 16 5.33341Z" fill="#FBFCFC"/>
<path d="M26.6666 11.9999C27.403 11.9999 28 11.403 28 10.6666C28 9.93021 27.403 9.33325 26.6666 9.33325C25.9303 9.33325 25.3333 9.93021 25.3333 10.6666C25.3333 11.403 25.9303 11.9999 26.6666 11.9999Z" fill="#FBFCFC"/>
<path d="M26.6666 22.6667C27.403 22.6667 28 22.0697 28 21.3333C28 20.597 27.403 20 26.6666 20C25.9303 20 25.3333 20.597 25.3333 21.3333C25.3333 22.0697 25.9303 22.6667 26.6666 22.6667Z" fill="#FBFCFC"/>
<path d="M5.33333 11.9999C6.06971 11.9999 6.66667 11.403 6.66667 10.6666C6.66667 9.93021 6.06971 9.33325 5.33333 9.33325C4.59695 9.33325 4 9.93021 4 10.6666C4 11.403 4.59695 11.9999 5.33333 11.9999Z" fill="#FBFCFC"/>
<path d="M5.33333 22.6667C6.06971 22.6667 6.66667 22.0697 6.66667 21.3333C6.66667 20.597 6.06971 20 5.33333 20C4.59695 20 4 20.597 4 21.3333C4 22.0697 4.59695 22.6667 5.33333 22.6667Z" fill="#FBFCFC"/>
<path d="M26.6666 18.6667V13.3334C26.151 13.3355 25.646 13.1874 25.2131 12.9073C24.7802 12.6272 24.4382 12.2271 24.2288 11.7559C24.0194 11.2847 23.9517 10.7628 24.034 10.2538C24.1162 9.74475 24.3449 9.27068 24.692 8.8894L18.3146 5.30273C18.0862 5.71656 17.7509 6.06157 17.3438 6.30183C16.9368 6.54209 16.4727 6.66882 16 6.66882C15.5273 6.66882 15.0632 6.54209 14.6561 6.30183C14.249 6.06157 13.9138 5.71656 13.6853 5.30273L7.30798 8.8894C7.65509 9.27068 7.88372 9.74475 7.96597 10.2538C8.04821 10.7628 7.98052 11.2847 7.77115 11.7559C7.56178 12.2271 7.21978 12.6272 6.78689 12.9073C6.35399 13.1874 5.84893 13.3355 5.33331 13.3334V18.6667C5.84893 18.6647 6.35399 18.8127 6.78689 19.0928C7.21978 19.373 7.56178 19.773 7.77115 20.2442C7.98052 20.7154 8.04821 21.2374 7.96597 21.7464C7.88372 22.2554 7.65509 22.7295 7.30798 23.1107L13.6853 26.6974C13.8604 26.3858 14.0966 26.1127 14.3798 25.8946C14.663 25.6765 14.9873 25.5178 15.3333 25.4281V18.5721C14.7049 18.4098 14.1572 18.0239 13.7929 17.4867C13.4286 16.9495 13.2728 16.2979 13.3546 15.6541C13.4364 15.0102 13.7502 14.4182 14.2372 13.9892C14.7242 13.5601 15.3509 13.3234 16 13.3234C16.649 13.3234 17.2758 13.5601 17.7628 13.9892C18.2498 14.4182 18.5636 15.0102 18.6454 15.6541C18.7272 16.2979 18.5713 16.9495 18.207 17.4867C17.8428 18.0239 17.2951 18.4098 16.6666 18.5721V25.4281C17.0128 25.518 17.3372 25.6768 17.6203 25.8952C17.9035 26.1135 18.1397 26.3869 18.3146 26.6987L24.692 23.1121C24.3444 22.7308 24.1154 22.2566 24.0329 21.7474C23.9505 21.2382 24.018 20.7159 24.2275 20.2445C24.4369 19.773 24.7791 19.3728 25.2122 19.0926C25.6454 18.8124 26.1508 18.6644 26.6666 18.6667Z" fill="#FBFCFC"/>
<path d="M16 29.3334C16.7364 29.3334 17.3334 28.7365 17.3334 28.0001C17.3334 27.2637 16.7364 26.6667 16 26.6667C15.2636 26.6667 14.6667 27.2637 14.6667 28.0001C14.6667 28.7365 15.2636 29.3334 16 29.3334Z" fill="#FBFCFC"/>
<path d="M16 17.3334C16.7364 17.3334 17.3334 16.7365 17.3334 16.0001C17.3334 15.2637 16.7364 14.6667 16 14.6667C15.2636 14.6667 14.6667 15.2637 14.6667 16.0001C14.6667 16.7365 15.2636 17.3334 16 17.3334Z" fill="#FBFCFC"/>
</svg>
