<svg width="32" height="32" viewBox="0 0 32 32" fill="none" xmlns="http://www.w3.org/2000/svg">
<g clip-path="url(#clip0_916_10503)">
<path d="M24.5357 11.7321C24.4643 11.4226 24.2946 11.1875 24.0268 11.0268C23.7589 10.8661 23.4702 10.8214 23.1607 10.8929C20.0536 11.631 17.6667 12 16 12C14.3333 12 11.9464 11.631 8.83929 10.8929C8.52976 10.8214 8.24107 10.8661 7.97321 11.0268C7.70536 11.1875 7.53571 11.4226 7.46429 11.7321C7.39286 12.0417 7.4375 12.3304 7.59821 12.5982C7.75893 12.8661 7.99405 13.0357 8.30357 13.1071C10.6131 13.6548 12.4167 14 13.7143 14.1429C13.6905 16.0238 13.5982 17.625 13.4375 18.9464C13.2768 20.2679 13.119 21.1935 12.9643 21.7232C12.8095 22.253 12.5655 22.9405 12.2321 23.7857L12.0714 24.1607C11.9524 24.4583 11.9583 24.75 12.0893 25.0357C12.2202 25.3214 12.4345 25.5238 12.7321 25.6429C12.8393 25.6905 12.9762 25.7143 13.1429 25.7143C13.6667 25.7143 14.0238 25.4702 14.2143 24.9821L14.3571 24.625C15 22.9702 15.4226 21.4286 15.625 20H16.375C16.5774 21.4286 17 22.9702 17.6429 24.625L17.7857 24.9821C17.9762 25.4702 18.3333 25.7143 18.8571 25.7143C19.0238 25.7143 19.1607 25.6905 19.2679 25.6429C19.5655 25.5238 19.7798 25.3214 19.9107 25.0357C20.0417 24.75 20.0476 24.4583 19.9286 24.1607L19.7679 23.7857C19.4345 22.9405 19.1905 22.253 19.0357 21.7232C18.881 21.1935 18.7232 20.2679 18.5625 18.9464C18.4018 17.625 18.3095 16.0238 18.2857 14.1429C19.5833 14 21.3869 13.6548 23.6964 13.1071C24.006 13.0357 24.2411 12.8661 24.4018 12.5982C24.5625 12.3304 24.6071 12.0417 24.5357 11.7321ZM18.2857 9.14286C18.2857 8.5119 18.0625 7.97321 17.6161 7.52679C17.1696 7.08036 16.631 6.85714 16 6.85714C15.369 6.85714 14.8304 7.08036 14.3839 7.52679C13.9375 7.97321 13.7143 8.5119 13.7143 9.14286C13.7143 9.77381 13.9375 10.3125 14.3839 10.7589C14.8304 11.2054 15.369 11.4286 16 11.4286C16.631 11.4286 17.1696 11.2054 17.6161 10.7589C18.0625 10.3125 18.2857 9.77381 18.2857 9.14286ZM28.5714 16C28.5714 17.7024 28.2411 19.3304 27.5804 20.8839C26.9196 22.4375 26.0268 23.7768 24.9018 24.9018C23.7768 26.0268 22.4375 26.9196 20.8839 27.5804C19.3304 28.2411 17.7024 28.5714 16 28.5714C14.2976 28.5714 12.6696 28.2411 11.1161 27.5804C9.5625 26.9196 8.22322 26.0268 7.09821 24.9018C5.97321 23.7768 5.08036 22.4375 4.41964 20.8839C3.75893 19.3304 3.42857 17.7024 3.42857 16C3.42857 14.2976 3.75893 12.6696 4.41964 11.1161C5.08036 9.5625 5.97321 8.22322 7.09821 7.09821C8.22322 5.97321 9.5625 5.08036 11.1161 4.41964C12.6696 3.75893 14.2976 3.42857 16 3.42857C17.7024 3.42857 19.3304 3.75893 20.8839 4.41964C22.4375 5.08036 23.7768 5.97321 24.9018 7.09821C26.0268 8.22322 26.9196 9.5625 27.5804 11.1161C28.2411 12.6696 28.5714 14.2976 28.5714 16ZM16 2.28571C14.1429 2.28571 12.369 2.64881 10.6786 3.375C8.9881 4.10119 7.52976 5.07738 6.30357 6.30357C5.07738 7.52976 4.10119 8.9881 3.375 10.6786C2.64881 12.369 2.28571 14.1429 2.28571 16C2.28571 17.8571 2.64881 19.631 3.375 21.3214C4.10119 23.0119 5.07738 24.4702 6.30357 25.6964C7.52976 26.9226 8.9881 27.8988 10.6786 28.625C12.369 29.3512 14.1429 29.7143 16 29.7143C17.8571 29.7143 19.631 29.3512 21.3214 28.625C23.0119 27.8988 24.4702 26.9226 25.6964 25.6964C26.9226 24.4702 27.8988 23.0119 28.625 21.3214C29.3512 19.631 29.7143 17.8571 29.7143 16C29.7143 14.1429 29.3512 12.369 28.625 10.6786C27.8988 8.9881 26.9226 7.52976 25.6964 6.30357C24.4702 5.07738 23.0119 4.10119 21.3214 3.375C19.631 2.64881 17.8571 2.28571 16 2.28571ZM32 16C32 18.1667 31.5774 20.2381 30.7321 22.2143C29.8869 24.1905 28.75 25.8929 27.3214 27.3214C25.8929 28.75 24.1905 29.8869 22.2143 30.7321C20.2381 31.5774 18.1667 32 16 32C13.8333 32 11.7619 31.5774 9.78572 30.7321C7.80952 29.8869 6.10714 28.75 4.67857 27.3214C3.25 25.8929 2.1131 24.1905 1.26786 22.2143C0.422619 20.2381 0 18.1667 0 16C0 13.8333 0.422619 11.7619 1.26786 9.78572C2.1131 7.80952 3.25 6.10714 4.67857 4.67857C6.10714 3.25 7.80952 2.1131 9.78572 1.26786C11.7619 0.422619 13.8333 0 16 0C18.1667 0 20.2381 0.422619 22.2143 1.26786C24.1905 2.1131 25.8929 3.25 27.3214 4.67857C28.75 6.10714 29.8869 7.80952 30.7321 9.78572C31.5774 11.7619 32 13.8333 32 16Z" fill="#FBFCFC"/>
</g>
<defs>
<clipPath id="clip0_916_10503">
<rect width="32" height="32" fill="white"/>
</clipPath>
</defs>
</svg>
