<svg width="507" height="376" viewBox="0 0 507 376" fill="none" xmlns="http://www.w3.org/2000/svg">
<g clip-path="url(#clip0_916_10434)">
<path d="M467.082 91.4003C409.538 11.4531 287.98 -20.977 168.432 13.951C105.23 32.4163 44.2922 69.4144 14.0928 141.055C-39.8918 269.119 73.4558 310.02 147.573 323.055C183.412 329.359 217.166 339.947 248.011 354.363C303.504 380.298 401.73 403.279 475.799 295.247C529.484 216.945 505.411 144.653 467.082 91.4003Z" fill="#F2F2F2"/>
<path d="M133.464 107.217C133.303 105.947 132.977 104.702 132.495 103.516C132.434 103.291 132.326 103.082 132.179 102.901C132.032 102.721 131.849 102.573 131.642 102.466C131.365 102.394 131.074 102.391 130.795 102.457L126.449 103.121C126.085 103.138 125.737 103.273 125.457 103.506C124.891 104.1 125.448 105.057 125.431 105.877C125.411 106.8 124.591 107.548 123.701 107.796C122.792 107.979 121.855 107.967 120.952 107.762L114.874 106.819C116.664 106.248 118.257 105.187 119.472 103.755C120.272 102.809 120.697 101.043 119.541 100.595C119.198 100.501 118.84 100.472 118.486 100.51C115.732 100.532 113.565 98.2363 110.987 97.2695C109.337 96.6907 107.546 96.6477 105.87 97.1465C104.194 97.6453 102.719 98.6604 101.656 100.047L104.894 100.203C105.199 100.186 105.501 100.266 105.756 100.432C106.466 101.014 105.584 102.132 105.684 103.044C105.814 104.228 107.388 104.481 108.576 104.6C109.763 104.72 111.269 105.683 110.698 106.729C104.731 108.781 98.6595 102.718 92.3934 103.465C90.8075 103.653 89.3099 104.275 87.7615 104.667C78.303 107.056 68.5245 100.681 58.862 102.031C56.7139 102.397 54.6027 102.953 52.5534 103.692C51.2384 104.123 49.8667 104.589 48.9111 105.589C47.9556 106.589 47.5919 108.299 48.4972 109.344C46.0021 109.549 43.4905 109.311 41.0789 108.64C41.731 109.002 42.2735 109.533 42.6495 110.176C43.0255 110.82 43.221 111.552 43.2156 112.297C39.3199 112.931 35.5274 114.086 31.9401 115.73C32.6096 116.841 33.3916 117.881 34.2738 118.834L29.342 121.997C31.0082 122.416 31.8697 124.685 30.9008 126.101C32.6284 125.334 33.6991 123.349 35.5466 122.946C36.7569 122.683 37.9884 123.177 39.1366 123.641C40.2848 124.106 41.5467 124.556 42.7353 124.207C43.9239 123.859 44.8006 122.32 44.0454 121.34C49.1258 119.86 54.3762 119.041 59.6667 118.903C60.0748 118.852 60.4887 118.93 60.8497 119.127C61.5384 119.604 61.3572 120.635 61.3201 121.471C61.283 122.307 61.9357 123.406 62.6841 123.029C61.8036 123.791 62.5563 125.226 63.401 126.028C64.2458 126.829 65.264 127.935 64.7468 128.978C64.6118 129.25 64.3829 129.468 64.253 129.743C63.8696 130.553 64.4783 131.498 65.1962 132.037C65.9142 132.575 66.7935 132.951 67.2923 133.697C67.791 134.442 67.5645 135.747 66.6727 135.851L64.138 132.638C63.272 133.534 62.6783 134.658 62.4258 135.877C65.1136 138.071 65.5179 142.536 63.2677 145.176C62.1177 146.525 60.4824 147.344 59.0552 148.396C57.6279 149.448 56.3073 150.946 56.3108 152.718C56.317 155.778 56.0666 158.621 57.2152 161.458C59.3331 166.69 61.7783 171.783 64.5363 176.708C65.2606 178.002 66.1967 179.419 67.6639 179.642C65.8096 175.135 64.1404 170.558 62.6562 165.91C63.6229 165.914 64.74 165.991 65.3067 166.773C65.7759 167.42 65.6751 168.3 65.8209 169.086C66.0064 169.848 66.3156 170.574 66.7364 171.235L75.5911 186.983C76.3252 188.288 77.1672 189.69 78.5701 190.218C79.4671 190.556 80.5048 190.493 81.3304 190.979C81.9775 191.361 82.4133 192.038 83.073 192.397C84.9383 193.413 87.5322 191.465 89.2754 192.678C89.7738 193.025 90.0909 193.576 90.5502 193.973C92.1601 195.365 94.8012 194.433 96.6597 195.472C97.8575 196.141 98.4783 197.48 99.1172 198.692C100.717 201.731 103.307 204.707 106.737 204.949C107.814 205.025 108.914 204.821 109.967 205.06C111.021 205.3 112.057 206.217 111.888 207.282C111.598 209.108 112.502 211.107 112.259 212.94C111.817 216.278 107.075 217.745 106.667 221.088C106.578 221.82 106.718 222.575 106.543 223.292C106.329 224.17 105.669 224.885 105.434 225.757C104.989 227.411 106.176 229.057 107.48 230.17C108.784 231.282 110.339 232.242 111.051 233.799C111.805 235.446 111.435 237.365 111.68 239.159C112.215 243.074 115.602 245.976 119.087 247.847C120.149 248.418 121.29 248.97 121.977 249.959C122.874 251.25 122.785 252.952 123.084 254.494C123.818 258.272 127.004 261.385 127.094 265.233C127.158 267.967 125.636 270.448 124.726 273.028C123.874 275.5 123.565 278.127 123.822 280.729C124.078 283.331 124.894 285.847 126.213 288.105C126.894 289.252 127.707 290.334 128.189 291.577C129.047 293.796 128.769 296.318 129.561 298.562C130.607 301.528 133.484 303.978 133.209 307.111C134.515 309.819 137.399 311.149 140.299 311.955L145.496 313.399C146.491 313.676 147.531 313.955 148.544 313.755C149.558 313.554 150.525 312.714 150.499 311.683C147.95 311.109 145.32 310.499 143.219 308.948C141.118 307.398 139.678 304.636 140.476 302.152C140.845 301 141.632 299.67 140.884 298.718C140.456 298.173 139.673 298.031 139.19 297.534C138.437 296.758 138.696 295.455 139.237 294.52C139.779 293.585 140.561 292.749 140.78 291.691C140.89 291.099 140.816 290.488 140.569 289.939C140.321 289.39 139.911 288.93 139.394 288.62C140.358 288.257 141.234 287.696 141.966 286.972C142.643 286.201 142.955 285.012 142.423 284.135C144.004 284.335 145.869 284.433 146.907 283.226C147.735 282.262 147.678 280.821 147.351 279.594C147.024 278.367 146.47 277.175 146.453 275.905C150.099 276.077 153.752 275.954 157.378 275.535C156.853 273.772 155.662 272.282 154.056 271.382C155.698 271.104 157.194 269.142 157.713 267.562C158.232 265.982 158.099 264.261 157.779 262.629C157.656 262.209 157.639 261.765 157.73 261.337C157.914 260.749 158.493 260.39 159.029 260.083L167.179 255.409C167.665 255.166 168.106 254.841 168.482 254.449C169.336 253.447 169.21 251.936 168.773 250.695C168.335 249.454 167.635 248.288 167.467 246.984C166.963 243.083 171.145 240.284 172.557 236.611C173.111 235.17 173.224 233.604 173.331 232.064C173.446 230.41 173.455 228.489 172.183 227.423C170.964 226.402 169.059 226.63 167.783 225.679C166.613 224.808 166.21 223.116 164.932 222.412C163.771 221.773 162.316 222.18 161.026 221.879C158.753 221.35 157.323 218.735 155.003 218.493C153.693 218.356 152.211 218.995 151.138 218.234C150.192 217.563 150.154 216.215 149.974 215.07C149.659 213.292 148.805 211.653 147.528 210.374C146.251 209.095 144.612 208.237 142.832 207.917C141.482 207.7 140.013 207.783 138.864 207.042C137.701 206.292 137.168 204.887 136.254 203.849C134.782 202.174 132.463 201.58 130.291 201.07L121.455 198.996C119.886 198.628 117.865 198.433 117.023 199.804C116.774 200.327 116.597 200.881 116.499 201.451C116.183 202.482 115.549 203.387 114.686 204.035C113.823 204.684 112.776 205.042 111.697 205.059C110.956 203.798 109.756 202.871 108.348 202.472C107.452 202.223 106.493 202.195 105.638 201.829C105.173 201.602 104.759 201.283 104.421 200.89C104.084 200.498 103.83 200.042 103.675 199.548C103.521 199.055 103.469 198.535 103.522 198.021C103.576 197.506 103.734 197.008 103.987 196.557C104.496 195.652 104.693 194.604 104.547 193.576C104.4 192.547 103.919 191.596 103.177 190.868C101.675 189.521 99.5011 189.195 97.4862 189.33C96.9585 188.181 97.8409 186.883 98.7917 186.048C99.7425 185.213 100.897 184.391 101.104 183.144C101.43 181.181 98.9219 179.691 97.0177 180.276C95.1135 180.861 93.8981 182.708 93.0947 184.528C92.6338 185.572 92.2419 186.672 91.5148 187.553C90.7877 188.433 89.6168 189.064 88.5092 188.781C86.9413 188.381 86.3357 186.521 85.9887 184.943C85.5231 182.826 85.0548 180.679 85.1524 178.513C85.2499 176.348 85.9812 174.124 87.5807 172.658C90.1871 170.269 94.1855 170.503 97.7031 170.884C96.872 169.949 97.0774 168.374 97.9666 167.494C98.436 167.078 99 166.782 99.6098 166.632C100.22 166.483 100.857 166.484 101.466 166.636C102.526 166.856 103.481 167.426 104.177 168.254C105.176 169.471 105.461 171.113 106.216 172.495C106.972 173.876 108.671 175.054 110.061 174.313C111.262 173.673 111.453 172.01 111.154 170.684C110.855 169.358 110.22 168.068 110.328 166.713C110.535 164.128 113.219 162.572 115.588 161.507C117.957 160.442 120.669 159.01 121.045 156.444C121.057 155.941 121.152 155.444 121.326 154.972C121.588 154.555 121.953 154.212 122.386 153.976C129.3 149.415 136.328 144.798 144.23 142.305C144.641 142.175 144.689 142.319 145.108 142.218C145.694 141.88 145.306 140.944 144.744 140.567C144.181 140.189 143.43 139.9 143.287 139.239C143.183 138.753 143.469 138.276 143.544 137.785C143.727 136.577 142.28 135.462 141.156 135.945C140.521 135.106 141.777 134.131 142.793 133.852C145.842 133.014 148.973 132.503 152.131 132.329C152.495 132.271 152.868 132.334 153.193 132.509C153.724 132.876 153.656 133.717 153.28 134.241C152.904 134.764 152.319 135.093 151.851 135.536C151.339 136.034 150.974 136.663 150.796 137.353C150.617 138.044 150.632 138.77 150.839 139.453C152.488 140.291 154.28 141.152 156.106 140.858C157.932 140.563 159.553 138.514 158.694 136.878C157.895 135.355 155.494 135.011 155.081 133.342C154.598 131.387 157.37 129.648 156.745 127.734C156.472 126.895 155.635 126.402 154.992 125.796C154.234 125.054 153.718 124.1 153.512 123.059C153.306 122.019 153.421 120.94 153.84 119.966C152.794 120.15 151.719 120.08 150.705 119.764C149.691 119.447 148.768 118.892 148.013 118.145C146.619 116.741 145.507 114.526 143.528 114.589C141.712 114.646 140.148 116.762 138.45 116.116C138.032 115.958 137.591 115.634 137.186 115.824C137.054 115.91 136.942 116.025 136.861 116.16C136.779 116.295 136.729 116.447 136.715 116.605C136.284 118.665 137.026 121.012 135.902 122.792C134.678 124.729 131.847 124.998 130.364 126.744C129.559 127.693 129.246 128.97 128.506 129.97C127.766 130.97 126.195 131.605 125.307 130.734C125.743 129.838 125.862 128.821 125.645 127.848C125.427 126.876 124.886 126.005 124.109 125.38C123.284 124.843 122.395 124.411 121.462 124.095C120.42 123.655 119.429 123.103 118.506 122.45C118.044 122.171 117.668 121.77 117.421 121.291C117.225 120.69 117.252 120.04 117.495 119.457C117.945 118.168 118.74 117.026 119.793 116.154C120.846 115.283 122.118 114.715 123.47 114.512C124.653 114.352 126.03 114.408 126.812 113.509C127.227 113.032 127.444 112.313 128.045 112.119C128.43 112.042 128.829 112.091 129.183 112.259L133.598 113.811C134.09 114.033 134.633 114.122 135.17 114.07C135.437 114.034 135.68 113.899 135.851 113.692C136.022 113.484 136.109 113.22 136.092 112.952C135.951 112.22 134.823 111.868 134.926 111.13C134.983 110.891 135.112 110.675 135.295 110.51C136.889 108.817 138.837 107.496 141.001 106.643C143.165 105.79 145.492 105.425 147.814 105.574C148.371 106.488 147.49 107.57 146.756 108.35C146.023 109.13 145.434 110.524 146.321 111.124C146.684 111.309 147.088 111.4 147.496 111.388C148.583 111.535 149.639 111.855 150.625 112.336C152.15 112.999 153.647 113.724 155.114 114.512C154.984 113.546 154.86 112.529 155.227 111.626C155.593 110.723 156.635 110.014 157.546 110.366C158.423 110.705 158.872 111.864 159.807 111.971C161.053 112.112 161.545 110.274 161.025 109.134C160.504 107.995 159.473 107.04 159.387 105.791C159.329 104.948 159.65 103.902 158.976 103.392C158.736 103.238 158.463 103.143 158.18 103.113L141.339 100.019C140.339 99.8351 138.894 99.9759 138.85 100.99C138.825 101.556 139.331 102.116 139.107 102.637C138.867 103.193 138.081 103.142 137.508 103.338C136.619 103.643 136.173 104.697 136.258 105.632C136.415 106.56 136.775 107.443 137.313 108.216C136.218 107.759 134.559 107.675 133.464 107.217Z" fill="#205B83"/>
<path d="M120.026 92.9439C118.964 92.593 117.82 92.5767 116.748 92.8971C115.676 93.2175 114.729 93.8592 114.035 94.7351C113.758 95.0997 113.525 95.6022 113.757 95.9969C114.09 96.5628 114.938 96.3393 115.563 96.1369C116.482 95.8091 117.483 95.7852 118.416 96.0689C119.003 96.2702 119.529 96.6259 120.118 96.8195C120.405 96.9394 120.72 96.979 121.028 96.9341C121.335 96.8891 121.625 96.7614 121.866 96.5645C122.271 96.1525 122.296 95.5118 122.297 94.9347C122.325 94.7416 122.309 94.5446 122.251 94.3582C122.194 94.1719 122.095 94.0007 121.962 93.8573C121.726 93.7208 121.461 93.6425 121.189 93.6289C120.578 93.5161 120.027 93.1943 119.629 92.719" fill="#205B83"/>
<path d="M126.099 91.256C125.861 91.243 125.624 91.2914 125.41 91.3963C125.197 91.5013 125.014 91.6593 124.879 91.8553C124.745 92.0512 124.663 92.2784 124.641 92.5151C124.62 92.7518 124.66 92.99 124.758 93.2067C125.488 93.4055 126.25 93.4551 127 93.3527C127.374 93.2947 127.722 93.1276 128.001 92.8723C128.28 92.617 128.476 92.2851 128.567 91.9182C127.684 92.0786 126.774 91.9049 126.012 91.4312" fill="#205B83"/>
<path d="M146.473 88.4366C144.486 88.8583 142.557 89.5128 140.724 90.3865C141.588 90.7181 142.322 91.318 142.819 92.0979C143.316 92.8777 143.548 93.7962 143.483 94.7181C143.405 95.072 143.414 95.4393 143.509 95.7891C143.72 96.3001 144.332 96.4919 144.87 96.6231C145.836 96.9167 146.845 97.0453 147.855 97.0034C148.359 96.9771 148.85 96.8254 149.281 96.5622C149.712 96.299 150.071 95.9326 150.325 95.496C150.471 95.0817 150.643 94.6768 150.839 94.2834C152.128 92.3229 155.959 94.6935 157.343 92.7986C157.831 92.1311 157.786 91.1264 158.422 90.5974C158.75 90.367 159.132 90.2218 159.531 90.1749C162.314 89.6227 165.126 89.2228 167.954 88.9771C169.294 88.8607 171.04 88.3804 171.051 87.0378C166.005 86.0483 160.772 86.7511 156.167 89.0369C154.508 89.8666 152.314 91.6119 150.716 90.5119C150.117 90.1 150.147 88.991 149.323 88.5279C148.481 88.0544 147.367 88.247 146.473 88.4366Z" fill="#205B83"/>
<path d="M162.976 91.5179L165.345 91.9723C164.909 91.953 164.474 92.0268 164.068 92.1887C163.663 92.3506 163.297 92.597 162.995 92.9113C162.693 93.2256 162.461 93.6007 162.315 94.0115C162.17 94.4223 162.113 94.8594 162.15 95.2936C164.369 96.0335 166.787 95.3135 169.124 95.4119C171.461 95.5102 174.18 97.1767 173.781 99.4776C173.66 100.173 173.257 100.869 173.467 101.543C173.613 102.016 174.031 102.351 174.267 102.786C174.758 103.694 174.365 104.841 173.745 105.666C173.125 106.49 172.292 107.148 171.747 108.025C170.393 110.205 171.163 113.023 171.969 115.458C172.202 116.378 172.633 117.236 173.231 117.974C174.426 119.242 176.373 119.353 178.117 119.378C179.386 119.397 180.84 119.334 181.642 118.352C182.69 117.07 181.958 115.07 182.648 113.566C183.274 112.2 184.87 111.614 186.317 111.198C188.966 110.436 191.667 109.789 194.172 108.639C197.282 107.21 200.189 104.984 203.608 104.8C204.567 104.749 205.55 104.862 206.474 104.599C207.398 104.337 208.276 103.539 208.206 102.583C208.146 101.766 207.453 101.166 206.912 100.549C206.371 99.9334 205.946 98.986 206.443 98.3342L215.405 96.6631C214.769 94.9347 214.275 92.6584 215.734 91.5334C216.261 91.1275 216.966 90.9652 217.414 90.4745C218.179 89.6381 217.794 88.1974 216.912 87.4861C216.03 86.7748 214.837 86.6097 213.707 86.5159C209.778 86.1901 205.826 86.4054 201.889 86.6209C194.193 87.042 186.497 87.4632 178.801 87.8844C177.252 87.9692 175.464 87.8396 174.043 88.3673C172.84 88.8141 171.985 89.6342 170.609 89.9223C168.069 90.4542 165.274 90.0942 162.976 91.5179Z" fill="#205B83"/>
<path d="M205.413 110.212C205.172 110.174 204.925 110.23 204.723 110.368C204.59 110.515 204.511 110.702 204.499 110.899C204.346 111.77 204.528 112.666 205.009 113.408C205.254 113.772 205.592 114.064 205.988 114.254C206.384 114.444 206.824 114.524 207.262 114.487C208.328 114.351 209.114 113.442 210.095 112.999C211.606 112.316 218.025 111.252 213.585 108.857C212.055 108.032 211.066 108.76 209.86 109.304C208.488 110.005 206.95 110.319 205.413 110.212Z" fill="#205B83"/>
<path d="M244.302 90.1659C243.783 90.3774 243.349 90.7543 243.068 91.2378C242.939 91.4834 242.909 91.7692 242.984 92.0363C243.06 92.3033 243.235 92.5312 243.475 92.6726C243.668 92.7427 243.873 92.7752 244.079 92.7684L246.187 92.8313C247.083 92.858 248.201 93.0484 248.442 93.91C248.621 94.5498 248.221 95.372 248.703 95.8292C248.911 95.9893 249.16 96.0863 249.421 96.1084C250.115 96.2865 250.84 96.3099 251.545 96.1769C253.078 95.7661 252.272 94.8315 252.756 93.9992C253.495 92.7259 253.367 93.4967 254.669 92.7669C255.631 92.2279 256.874 91.2502 256.071 89.8766C254.675 87.4878 246.362 89.1397 244.302 90.1659Z" fill="#205B83"/>
<path d="M285.909 88.9649L284.685 89.128C281.925 89.4957 279.149 89.8669 276.49 90.6945C277.641 91.1488 278.848 91.4445 280.079 91.5737C280.756 91.6069 281.429 91.7024 282.089 91.859C283.263 92.208 284.447 93.1093 285.581 92.6476C286.285 92.3614 286.514 91.6301 287.097 91.2426C287.499 90.975 289.025 90.5419 289.196 90.2718C290.575 88.0883 286.969 88.8236 285.909 88.9649Z" fill="#205B83"/>
<path d="M291.284 94.5195C289.649 95.4323 288.132 96.5415 286.767 97.8223C286.192 98.3621 285.604 99.0335 285.656 99.8198C285.726 100.865 286.841 101.471 287.807 101.88L291.72 103.534C292.195 102.866 291.76 101.944 291.27 101.287C290.779 100.631 290.196 99.8711 290.413 99.0811C290.66 98.1796 291.761 97.8724 292.684 97.7171C294.188 97.4641 298.246 97.4844 297.758 95.0641C297.184 92.2123 292.794 93.6769 291.284 94.5195Z" fill="#205B83"/>
<path d="M290.497 255.906C290.125 256.982 290.089 258.251 290.734 259.191C291.457 260.246 292.904 260.639 294.156 260.372C295.403 260.04 296.514 259.327 297.333 258.332C298.082 257.498 298.699 256.555 299.161 255.534C299.805 253.943 300.26 252.282 300.515 250.585L301.73 244.216C302.002 242.793 301.991 238.429 299.371 239.851C298.655 240.239 296.998 243.306 296.247 244.176C294.895 245.743 294.716 247.264 294.005 249.163C293.113 251.541 291.321 253.523 290.497 255.906Z" fill="#205B83"/>
<path d="M428.895 288.497C428.037 288.163 427.205 287.768 426.405 287.314C425.602 289.517 425.175 291.838 425.142 294.182L431.009 290.868C431.892 290.369 432.892 289.676 432.873 288.664C432.881 288.539 432.855 288.414 432.798 288.302C432.741 288.191 432.655 288.097 432.549 288.03C432.419 287.978 432.277 287.961 432.138 287.982C431.268 288.054 430.475 288.481 429.654 288.779C428.833 289.076 427.873 289.233 427.12 288.792" fill="#205B83"/>
<path d="M459.845 290.465C459.201 290.64 458.572 290.866 457.963 291.14C456.617 291.823 455.701 293.123 454.489 294.023C453.33 294.885 451.934 295.359 450.564 295.819C450.161 296.175 450.346 296.891 450.784 297.204C451.254 297.471 451.793 297.592 452.333 297.551C453.757 297.583 455.256 297.596 456.503 296.91C457.206 296.455 457.863 295.934 458.466 295.354C459.924 294.14 461.675 293.339 463.408 292.564C464.038 292.327 464.622 291.978 465.13 291.536C466.219 290.465 466.295 288.813 464.725 288.448C463.457 288.153 461.053 290.075 459.845 290.465Z" fill="#205B83"/>
<path d="M473.52 281.547C473.59 280.81 473.492 280.066 473.233 279.373C472.973 278.679 472.559 278.053 472.022 277.543C472.006 279.018 471.961 280.589 471.131 281.808C470.539 282.677 469.611 283.264 468.962 284.091C468.314 284.919 468.026 286.231 468.787 286.957C469.273 287.326 469.865 287.53 470.476 287.538C471.99 287.716 473.742 287.815 474.804 286.723C475.384 286.127 475.666 285.244 476.373 284.806C476.636 284.695 476.871 284.527 477.061 284.314C477.353 283.851 476.889 283.24 476.367 283.073C475.845 282.906 475.27 282.985 474.745 282.826C474.22 282.668 473.739 282.079 474.008 281.602" fill="#205B83"/>
<path d="M449.215 227.481C448.421 227.674 447.598 227.722 446.786 227.624C445.438 227.377 444.389 226.362 443.301 225.531C440.714 223.564 437.569 222.467 434.319 222.397C431.362 222.341 428.377 223.141 425.473 222.583C425.662 223.637 426.566 224.427 427.529 224.897C428.493 225.367 429.556 225.603 430.524 226.063C432.075 226.808 433.305 228.085 433.989 229.661C434.3 230.388 434.497 231.179 434.969 231.814C435.934 233.111 437.764 233.395 439.38 233.289C441.485 233.151 443.684 232.546 445.643 233.33C447.142 233.929 448.215 235.238 449.466 236.257C450.717 237.275 452.48 238.031 453.917 237.296C452.424 236.814 451.125 235.868 450.209 234.596C449.293 233.324 448.809 231.794 448.826 230.228C450.235 230.357 454.294 230.307 454.075 227.916C453.89 225.89 450.425 227.262 449.215 227.481Z" fill="#205B83"/>
<path d="M430.78 243.966C431.03 242.595 432.398 241.385 431.972 240.059C431.677 239.142 430.612 238.689 429.648 238.667C428.683 238.644 427.736 238.931 426.771 238.958C426.144 238.925 425.515 238.934 424.888 238.985C422.974 239.299 421.794 241.302 419.99 242.014C418.893 242.448 417.661 242.365 416.52 242.664C413.93 243.344 412.292 245.787 410.481 247.757C407.556 250.925 403.746 253.144 399.543 254.126C398.071 254.466 396.488 254.684 395.318 255.639C393.768 256.903 393.386 259.07 393.042 261.039C392.089 266.475 390.633 271.811 388.692 276.979L394.842 277.763C396.011 277.912 397.222 278.057 398.349 277.712C399.167 277.403 399.942 276.991 400.655 276.485C403.394 274.787 406.459 273.683 409.652 273.243C411.263 273.022 412.951 272.981 414.462 273.579C415.973 274.177 417.27 275.532 417.396 277.15C418.05 276.947 418.746 276.925 419.411 277.086C420.076 277.248 420.685 277.586 421.172 278.066C422.135 279.046 422.765 280.303 422.974 281.659C423.136 282.499 423.298 283.505 424.079 283.858C424.716 284.145 425.446 283.836 426.143 283.78C428.507 283.591 430.469 286.343 432.793 285.869C435.285 285.361 435.897 281.635 438.328 280.888C439.724 280.46 441.683 280.981 442.352 279.684C442.941 278.541 441.765 277.222 441.886 275.942C442.036 274.366 443.898 273.697 445.333 273.025C450.281 270.707 452.63 264.057 450.232 259.153C448.811 256.247 446.015 253.96 445.499 250.767C445.102 248.311 446.072 245.448 444.503 243.514C443.705 242.531 442.355 241.988 441.88 240.815C441.581 240.076 441.701 239.238 441.54 238.458C441.379 237.677 440.698 236.861 439.926 237.063C437.686 237.651 436.971 244.56 435.771 246.239C433.948 248.791 430.205 247.11 430.78 243.966Z" fill="#205B83"/>
<path d="M389.373 230.092C388.607 229.877 387.771 229.666 387.038 229.972C386.304 230.279 385.876 231.354 386.464 231.887C391.07 231.708 395.704 231.53 400.27 232.155C405.532 232.874 410.739 234.657 416.023 234.132C413.005 233.243 409.936 232.532 406.834 232.003L401.66 231.017C400.273 230.726 398.87 230.51 397.459 230.369C394.508 230.125 392.274 230.904 389.373 230.092Z" fill="#205B83"/>
<path d="M393.983 214.076C393.601 214.045 393.127 214.017 392.93 214.345C392.741 214.659 392.957 215.073 392.855 215.425C392.716 215.905 392.086 216.028 391.59 215.963C391.093 215.897 390.556 215.741 390.116 215.98C389.893 216.132 389.726 216.352 389.639 216.607C389.552 216.863 389.55 217.139 389.634 217.396C389.813 217.905 390.104 218.368 390.485 218.751C391.136 219.57 391.877 220.312 392.695 220.964C394.278 222.131 396.422 222.693 397.419 224.386C397.56 224.714 397.776 225.005 398.05 225.234C398.529 225.537 399.153 225.306 399.668 225.071L401.475 224.247C401.8 224.13 402.091 223.933 402.319 223.674C402.732 223.115 402.478 222.32 402.132 221.718C401.786 221.115 401.342 220.492 401.416 219.802C401.549 218.571 403.134 218.1 403.786 217.046C404.444 215.984 404.016 214.616 404.092 213.37C404.18 211.913 405.097 210.018 403.622 208.93C402.368 208.004 401.169 208.859 400.269 209.881C398.371 212.035 397.473 214.367 393.983 214.076Z" fill="#205B83"/>
<path d="M404.948 192.306C405.565 193.485 406.85 194.189 407.523 195.337C408.251 196.581 408.168 198.189 408.959 199.395C409.771 200.633 411.403 201.29 411.858 202.697C412.355 204.234 411.228 206.102 412.126 207.444C412.294 207.664 412.505 207.846 412.747 207.98C412.989 208.114 413.256 208.196 413.531 208.221C413.806 208.246 414.084 208.214 414.346 208.127C414.608 208.039 414.849 207.898 415.054 207.713C415.433 207.301 415.635 206.758 415.619 206.199C415.602 205.64 415.368 205.11 414.965 204.721C414.433 204.237 413.67 204.028 413.226 203.462C412.994 203.136 412.84 202.761 412.775 202.367C412.533 201.229 412.572 200.049 412.888 198.93C413.007 198.646 413.037 198.332 412.974 198.031C412.775 197.451 411.988 197.409 411.435 197.14C410.181 196.529 410.211 194.761 410.431 193.385C410.285 194.301 407.015 192.743 406.673 192.224C405.993 191.193 406.363 189.203 406.228 188.064C404.76 188.77 404.194 190.865 404.948 192.306Z" fill="#205B83"/>
<path d="M372.011 210.445C371.408 209.77 370.499 209.065 369.69 209.472C369.073 209.782 368.903 210.635 369.145 211.281C369.439 211.909 369.893 212.449 370.461 212.848C372.147 214.236 373.962 215.489 375.433 217.103C378.065 219.99 379.46 223.887 382.322 226.548C382.898 227.164 383.659 227.576 384.491 227.72C385.325 227.797 386.262 227.264 386.358 226.433C386.437 225.749 385.959 225.137 385.492 224.63C384.38 223.422 383.163 222.31 382.113 221.049C381.628 220.564 381.323 219.929 381.249 219.248C381.244 218.568 381.864 217.857 382.524 218.025C381.722 217.821 381.127 216.487 379.95 216.236C378.967 216.027 378.729 216.635 377.558 216.134C375.326 215.178 373.574 212.192 372.011 210.445Z" fill="#205B83"/>
<path d="M424.466 144.774C423.825 144.584 423.196 144.359 422.58 144.101C420.922 143.604 418.729 144.821 418.95 146.534C419.097 147.673 420.158 148.441 420.744 149.428C421.613 150.893 421.382 152.751 420.925 154.391C420.813 154.899 420.6 155.379 420.298 155.803C419.876 156.25 419.372 156.612 418.813 156.869C416.574 158.123 414.6 159.797 413 161.8C412.826 161.985 412.705 162.213 412.649 162.461C412.57 163.039 413.152 163.461 413.482 163.943C414.213 165.015 413.684 166.458 413.757 167.753C413.746 167.936 413.781 168.119 413.861 168.284C413.941 168.45 414.061 168.592 414.211 168.698C414.652 168.921 415.175 168.542 415.414 168.109C416.207 166.675 415.609 164.372 417.097 163.68C417.379 163.549 417.72 163.494 417.908 163.247C418.205 162.856 417.918 162.276 418.069 161.808C418.296 161.105 419.258 161.073 419.997 161.105C421.27 161.158 422.542 160.989 423.756 160.605C424.233 160.492 424.665 160.242 425.001 159.886C425.446 159.331 425.406 158.543 425.317 157.839C424.872 154.326 423.758 150.931 422.034 147.836C423.341 148.003 424.763 148.147 425.891 147.467C426.522 147.087 427.28 145.948 426.966 145.173C426.471 143.947 425.576 144.979 424.466 144.774Z" fill="#205B83"/>
<path d="M256.91 164.093C257.067 164.931 257.221 165.813 256.946 166.619C256.671 167.426 255.806 168.1 254.989 167.853C254.355 167.661 253.989 167.025 253.539 166.539C251.037 163.842 245.39 165.404 243.844 162.066C243.213 160.704 243.642 159.072 243.211 157.635C242.94 156.804 242.4 156.086 241.675 155.595C240.951 155.104 240.084 154.867 239.21 154.921C238.413 155.036 237.638 155.267 236.908 155.607C232.02 157.562 226.888 158.843 221.654 159.416C220.659 159.477 219.675 159.656 218.723 159.949C216.573 160.727 215.105 162.716 214.06 164.746C213.015 166.776 212.243 168.974 210.842 170.778C209.369 172.673 207.306 174 205.381 175.436C204.64 175.913 204.022 176.559 203.58 177.321C203.162 178.176 203.186 179.171 203.218 180.122L203.612 191.671C203.662 193.156 203.726 194.695 204.392 196.024C205.223 197.684 206.866 198.771 208.005 200.238C209.168 201.745 209.774 203.606 209.72 205.508C209.696 206.273 209.62 207.177 210.216 207.657C210.579 207.892 211.004 208.014 211.436 208.007L227.083 209.286C229.835 209.511 232.885 209.88 234.682 211.974C235.53 212.962 236.212 214.383 237.511 214.489C238.068 214.535 238.61 214.306 239.167 214.262C240.573 214.151 241.808 215.216 242.588 216.39C243.768 218.179 244.303 220.315 244.107 222.448C243.979 223.786 243.563 225.088 243.474 226.43C243.133 231.535 247.468 235.971 247.552 241.088C247.601 244.097 246.17 246.909 244.775 249.577C247.027 252.983 245.183 257.518 246.079 261.499C246.93 265.276 250.084 268.233 250.87 272.024C251.23 273.76 251.251 275.895 252.784 276.789C253.456 277.117 254.202 277.266 254.949 277.222C259.454 277.275 263.909 276.263 267.947 274.268C269.842 273.329 271.807 271.927 272.138 269.84C272.405 268.158 271.55 266.275 272.42 264.81C273.445 263.082 276.071 263.219 277.579 261.891C280.026 259.736 278.118 255.627 279.109 252.524C280.001 249.734 283.068 248.252 284.589 245.749C285.187 244.672 285.617 243.51 285.862 242.303C286.559 239.419 286.992 236.478 287.158 233.515C287.198 231.716 287.331 229.919 287.556 228.133C289.195 217.963 299.265 211.154 302.534 201.384C302.846 200.452 302.993 199.209 302.162 198.681C301.669 198.446 301.11 198.388 300.578 198.515L293.366 199.423C292.47 199.536 291.52 199.641 290.697 199.27C289.875 198.898 289.285 197.859 289.721 197.07C290.947 194.855 288.427 192.055 287.307 189.784C284.292 183.671 280.702 177.857 276.584 172.422C276.321 172.143 276.156 171.785 276.114 171.403L278.161 171.471C277.47 168.996 276.33 166.287 273.921 165.381C272.563 164.871 271.06 165.047 269.612 165.126C265.464 165.352 261.016 164.727 256.91 164.093Z" fill="#205B83"/>
<path d="M269.615 108.305C270.701 109.456 271.917 110.676 273.488 110.876C276.262 111.231 278.256 108.367 279.526 105.879C279.573 106.513 279.866 107.104 280.343 107.526C280.82 107.948 281.442 108.167 282.079 108.138C282.763 108.023 283.417 107.768 283.998 107.389C289.495 104.39 295.651 102.801 301.915 102.764C301.855 102.291 301.972 101.812 302.245 101.419C302.518 101.027 302.927 100.75 303.392 100.641C304.666 100.389 305.813 101.488 306.427 102.63C307.042 103.772 307.425 105.095 308.401 105.95C309.377 106.805 311.266 106.768 311.652 105.53C312.022 104.342 310.782 103.328 309.752 102.628C308.722 101.927 307.636 100.63 308.33 99.5964C313.592 98.4334 318.888 97.2659 324.273 97.0347C325.19 97.0665 326.103 96.9094 326.957 96.5731C327.778 96.1707 328.431 95.2574 328.21 94.371C327.035 94.6468 325.804 94.567 324.674 94.1416C323.545 93.7162 322.568 92.9646 321.868 91.9827C329.34 91.367 337.288 90.8423 343.91 94.3527C344.704 96.0559 340.654 97.473 341.738 99.0092C342.083 99.4992 342.776 99.5566 343.376 99.5677C347.978 99.653 352.606 99.7367 357.156 99.043C358.819 98.7896 360.498 98.4317 362.168 98.6373C364.948 98.9796 367.326 100.832 370.062 101.436C371.175 101.682 372.423 101.69 373.362 101.043C374.3 100.397 374.704 98.9247 373.935 98.0842C376.51 95.5639 380.785 96.1886 384.183 97.3951C387.58 98.6017 390.799 100.548 394.396 100.816C396.974 101.009 399.589 100.317 402.137 100.757C403.739 101.034 405.229 101.745 406.794 102.182C409.754 103.008 412.885 102.834 415.958 102.874C423.8 102.979 431.556 104.518 438.842 107.413C439.79 107.722 440.658 108.234 441.386 108.914C442.064 109.639 442.409 110.765 441.954 111.647L434.425 110.548C435.134 111.942 436.969 112.18 438.46 112.661C439.95 113.142 441.495 114.785 440.6 116.068C438.985 115.555 437.521 117.167 436.706 118.65C435.89 120.133 434.896 121.909 433.204 122C431.688 122.08 429.855 120.792 428.868 121.942C430.232 123.661 431.401 125.526 432.352 127.504C433.328 129.533 434.023 132.091 432.704 133.917C432.496 134.243 432.181 134.487 431.814 134.607C430.736 134.879 430.036 133.563 429.264 132.766C428.29 131.761 426.818 131.476 425.5 131.005C424.182 130.534 422.793 129.606 422.69 128.212C422.626 127.345 423.084 126.538 423.422 125.737C423.99 124.385 424.239 122.921 424.148 121.459C424.074 120.282 423.744 119.058 422.897 118.236C422.051 117.414 420.589 117.153 419.681 117.906C419.257 118.257 418.917 118.819 418.366 118.84C417.393 118.877 416.646 117.184 415.864 117.762C415.956 118.378 415.828 119.007 415.502 119.538C413.167 121.566 409.578 120.708 406.567 121.424C405.135 121.834 403.764 122.431 402.49 123.202C402.014 123.405 401.608 123.745 401.325 124.178C400.949 124.908 401.364 125.842 402.026 126.327C402.729 126.757 403.518 127.026 404.338 127.114C408.009 127.809 411.734 128.883 414.632 131.237C417.53 133.592 419.431 137.483 418.514 141.099L411.274 134.193C411.549 137.093 411.705 140.001 411.742 142.917C411.789 143.486 411.711 144.059 411.513 144.595C410.997 145.733 409.598 146.116 408.372 146.367C408.031 146.432 407.708 146.568 407.423 146.766C407.139 146.964 406.899 147.22 406.721 147.518C406.543 147.815 406.429 148.146 406.388 148.49C406.347 148.834 406.38 149.183 406.484 149.514C406.919 150.931 408.005 152.036 408.999 153.137C409.994 154.238 410.972 155.49 411.102 156.966C411.232 158.443 410.116 160.108 408.635 160.005C407.512 159.927 406.679 158.923 406.2 157.906C405.721 156.889 405.436 155.756 404.717 154.892C402.538 152.277 397.646 153.397 395.695 150.609C395.197 151.172 394.852 151.853 394.693 152.587C394.533 153.321 394.564 154.083 394.782 154.802C395.69 154.235 396.933 154.762 397.615 155.586C398.297 156.411 398.618 157.468 399.154 158.394C399.877 159.643 401.027 160.751 401.128 162.19C401.101 162.734 401.11 163.28 401.155 163.823C401.335 164.695 402.073 165.321 402.585 166.05C403.776 167.746 403.717 170.077 402.949 172.001C402.182 173.926 400.802 175.534 399.436 177.093C397.05 179.816 394.615 182.524 391.786 184.785C390.979 185.431 390.117 186.065 389.615 186.967C389.112 187.869 389.086 189.136 389.859 189.822C389.306 189.85 388.315 190.121 387.762 190.149C387.567 187.935 387.525 185.71 387.635 183.49C385.454 182.444 383.105 185.245 383.387 187.645C383.668 190.045 385.406 191.97 386.644 194.046C387.549 195.565 388.222 197.335 387.92 199.076C387.618 200.817 386.061 202.423 384.298 202.269C381.494 202.025 380.321 198.006 377.544 197.546C377.299 197.488 377.042 197.514 376.813 197.618C376.401 197.844 376.33 198.395 376.306 198.864C376.193 201.165 376.094 203.558 376.994 205.679C378.311 208.783 381.711 211.39 380.998 214.685C377.155 212.902 375.157 208.599 374.25 204.466C373.343 200.334 373.192 195.995 371.566 192.088C370.331 193.668 367.736 192.362 366.607 190.704C365.538 189.133 364.879 187.315 363.842 185.722C362.804 184.129 361.214 182.703 359.313 182.616C357.32 182.524 355.592 183.889 354.072 185.18C352.821 186.241 351.538 187.343 350.807 188.81C349.744 190.944 350.022 193.46 349.971 195.844C349.916 198.42 349.369 201.138 347.61 203.024C345.851 204.911 342.605 205.567 340.665 203.868C339.652 202.98 339.162 201.654 338.725 200.382C336.62 194.247 334.866 187.997 333.473 181.662C333.147 183.108 331.876 184.972 330.661 184.12C330.389 183.891 330.168 183.607 330.013 183.286C327.747 179.452 323.551 177.153 319.312 175.774C315.072 174.395 310.612 173.751 306.419 172.236C304.07 171.386 301.826 170.27 299.731 168.91C299.197 169.693 298.885 170.606 298.829 171.552C298.772 172.497 298.973 173.441 299.41 174.282C300.34 175.926 302.444 176.877 304.246 176.303C305.177 176.006 305.963 175.36 306.886 175.042C307.81 174.723 309.05 174.879 309.454 175.768C309.841 176.618 309.256 177.647 309.546 178.535C309.988 179.888 312.031 179.992 312.745 181.223C313.277 182.138 312.839 183.354 312.08 184.093C311.321 184.832 310.309 185.237 309.382 185.752C306.376 187.421 304.238 190.27 301.611 192.486C298.984 194.703 295.278 196.321 292.147 194.899C292.893 191.126 288.392 188.356 287.563 184.6C287.291 183.364 287.432 182.051 287.043 180.846C286.48 179.102 284.93 177.902 283.658 176.581C282.116 174.96 280.914 173.047 280.124 170.955C279.334 168.863 278.972 166.635 279.059 164.401C279.128 162.849 279.413 161.271 279.059 159.758C278.705 158.245 277.45 156.781 275.896 156.849C272.344 157.006 267.871 157.269 266.008 154.247C265.343 153.168 265.053 151.589 266.015 150.762C266.693 150.179 267.694 150.234 268.585 150.322L276.586 151.107C278.457 151.291 280.48 151.443 282.086 150.466C283.692 149.489 284.388 146.897 282.901 145.747C281.814 144.908 279.868 144.953 279.552 143.618C279.289 142.506 280.521 141.245 279.856 140.316C279.378 139.649 278.305 139.834 277.655 140.334C277.005 140.833 276.533 141.564 275.805 141.942C274.528 142.605 273.003 141.974 271.629 141.545C270.255 141.116 268.414 141.079 267.748 142.353C267.003 143.777 268.409 145.644 267.669 147.072C266.692 148.959 263.381 147.884 262.008 149.508C260.432 151.371 263.08 154.148 262.548 156.528C261.87 156.863 261.116 157.017 260.36 156.975C259.605 156.933 258.873 156.695 258.236 156.286C257.61 155.861 257.111 155.274 256.793 154.589C256.474 153.903 256.347 153.144 256.426 152.392C256.558 151.322 257.117 150.229 256.742 149.217C256.439 148.399 255.617 147.913 254.852 147.491L247.077 143.201C246.355 144.538 247.268 146.196 248.409 147.2C249.55 148.204 250.98 148.96 251.73 150.282C252.204 151.198 252.311 152.259 252.027 153.251C251.744 154.242 251.092 155.088 250.205 155.616C250.094 155.692 249.968 155.744 249.834 155.767C249.701 155.79 249.565 155.784 249.434 155.75C249.31 155.677 249.202 155.58 249.116 155.465C249.03 155.35 248.969 155.218 248.935 155.079C247.563 151.574 245.503 148.118 242.21 146.287C238.917 144.456 234.185 144.832 232.026 147.917C231.513 148.649 231.169 149.484 230.722 150.259C228.348 154.374 223.259 156.323 218.504 156.195C218.039 156.221 217.576 156.113 217.171 155.883C216.403 155.353 216.438 154.229 216.555 153.304L217.054 149.378C217.155 148.59 217.3 147.719 217.925 147.227C218.806 146.533 220.076 146.971 221.198 146.955C222.048 146.915 222.865 146.615 223.538 146.096C224.212 145.577 224.709 144.864 224.963 144.053C225.19 143.235 225.188 142.37 224.959 141.552C224.73 140.734 224.281 139.994 223.662 139.412C223.148 138.929 222.457 138.324 222.729 137.674C222.837 137.494 222.984 137.34 223.158 137.223C223.332 137.106 223.53 137.028 223.738 136.996C225.753 136.411 227.882 136.258 229.863 135.569C231.845 134.88 233.766 133.469 234.235 131.428C234.379 130.802 234.445 130.044 235.007 129.734C235.29 129.615 235.593 129.553 235.9 129.552C236.974 129.399 237.952 128.85 238.642 128.014C239.331 127.177 239.682 126.114 239.625 125.032C240.574 124.369 241.905 124.857 242.823 125.561C243.742 126.266 244.553 127.197 245.671 127.5C247.754 128.066 249.767 126.225 251.925 126.217C252.833 126.213 253.773 126.533 254.627 126.226C255.493 125.915 256.01 125.054 256.675 124.418C257.339 123.783 258.505 123.395 259.119 124.08L258.596 120.216C259.648 120.481 260.745 120.518 261.813 120.326C262.881 120.133 263.896 119.714 264.788 119.098L258.035 116.82C257.8 116.761 257.583 116.645 257.404 116.483C256.913 115.955 257.4 115.132 257.8 114.532C258.755 113.097 258.915 110.732 257.345 110.018C256.273 109.53 255.042 110.115 254.013 110.688L249.084 113.432C248.928 114.368 250.073 114.898 250.783 115.528C251.213 115.909 251.517 116.411 251.655 116.968C251.794 117.525 251.76 118.11 251.559 118.648C251.359 119.186 250.999 119.65 250.529 119.98C250.059 120.31 249.5 120.491 248.925 120.498C249.25 120.919 249.476 121.408 249.585 121.928C249.695 122.448 249.686 122.986 249.559 123.502L246.243 123.74C245.871 123.815 245.484 123.74 245.168 123.531C244.813 123.216 244.861 122.665 244.779 122.199C244.58 121.073 243.476 120.284 242.349 120.081C241.222 119.879 240.07 120.138 238.954 120.394C238.48 120.565 237.96 120.553 237.494 120.361C237.227 120.188 237.024 119.932 236.917 119.633C236.428 118.449 236.885 117.057 237.67 116.044C238.456 115.031 239.532 114.291 240.498 113.448C242.808 111.424 244.505 108.796 245.398 105.86C247.223 105.096 249.113 104.059 250.939 103.295C253.754 101.872 256.91 101.261 260.053 101.532L266.236 101.65C268.066 101.685 269.946 101.729 271.639 102.426C273.331 103.123 274.819 104.63 274.935 106.454C274.971 106.66 274.953 106.872 274.883 107.07C274.814 107.268 274.696 107.445 274.539 107.584C274.3 107.714 274.029 107.775 273.757 107.76C272.05 107.82 271.322 108.245 269.615 108.305Z" fill="#205B83"/>
<path d="M220.336 127.65C220.577 127.422 220.751 127.132 220.838 126.811C220.925 126.491 220.922 126.153 220.829 125.834C220.242 125.607 219.602 125.549 218.983 125.666C218.364 125.783 217.79 126.07 217.325 126.494C216.959 126.864 216.643 127.281 216.387 127.733C215.574 129.057 214.856 130.637 215.326 132.117C215.365 132.278 215.435 132.43 215.533 132.564C215.631 132.698 215.755 132.811 215.897 132.896C216.108 132.981 216.336 133.016 216.562 133C217.457 132.999 218.352 132.944 219.24 132.836C219.785 132.769 220.419 132.615 220.63 132.109C220.907 131.442 220.236 130.688 220.432 129.994C220.56 129.684 220.755 129.405 221.003 129.177C221.126 129.063 221.22 128.921 221.279 128.764C221.337 128.606 221.358 128.438 221.34 128.271C221.261 127.945 220.761 127.76 220.582 128.043" fill="#205B83"/>
<path d="M224.977 121.643C224.182 121.461 223.362 121.409 222.551 121.491C222.371 121.486 222.193 121.526 222.034 121.608C221.879 121.722 221.767 121.884 221.715 122.069C221.544 122.618 221.586 123.212 221.833 123.732C222.08 124.251 222.515 124.659 223.049 124.873C223.341 124.94 223.62 125.052 223.877 125.205C224.563 125.737 224.126 126.823 224.256 127.681C224.402 128.644 225.335 129.452 225.164 130.41C225.029 131.166 224.221 131.764 224.351 132.52C224.487 133.312 225.494 133.55 226.296 133.613C226.761 133.694 227.24 133.64 227.674 133.455C228.11 133.158 228.419 132.71 228.543 132.198C228.872 131.222 229.01 130.192 228.95 129.164C228.946 128.697 228.829 128.237 228.607 127.825C228.366 127.499 228.098 127.193 227.807 126.91C226.27 125.125 227.888 122.462 224.977 121.643Z" fill="#205B83"/>
<path opacity="0.8" d="M427.096 261.479C427.096 261.479 309.373 194.011 258.692 206.794C258.692 206.794 151.283 218.335 138.835 243.724C138.835 243.724 104.692 137.196 92.2444 133.645" stroke="#86C1E9" stroke-width="2" stroke-miterlimit="10"/>
<path opacity="0.8" d="M138.835 243.724C158.574 191.17 336.403 132.935 336.403 132.935C311.151 139.327 258.692 206.794 258.692 206.794C258.692 206.794 147.727 126.188 92.2444 133.645C92.2444 133.645 336.581 141.635 427.096 261.479" stroke="#86C1E9" stroke-width="2" stroke-miterlimit="10"/>
<path d="M92.2444 138.794C95.0925 138.794 97.4014 136.489 97.4014 133.645C97.4014 130.802 95.0925 128.497 92.2444 128.497C89.3962 128.497 87.0873 130.802 87.0873 133.645C87.0873 136.489 89.3962 138.794 92.2444 138.794Z" fill="#86C1E9"/>
<path d="M138.835 248.873C141.684 248.873 143.992 246.568 143.992 243.724C143.992 240.88 141.684 238.575 138.835 238.575C135.987 238.575 133.678 240.88 133.678 243.724C133.678 246.568 135.987 248.873 138.835 248.873Z" fill="#86C1E9"/>
<path d="M336.403 138.084C339.251 138.084 341.56 135.779 341.56 132.935C341.56 130.092 339.251 127.786 336.403 127.786C333.555 127.786 331.246 130.092 331.246 132.935C331.246 135.779 333.555 138.084 336.403 138.084Z" fill="#86C1E9"/>
<path d="M427.096 266.628C429.944 266.628 432.253 264.322 432.253 261.479C432.253 258.635 429.944 256.33 427.096 256.33C424.248 256.33 421.939 258.635 421.939 261.479C421.939 264.322 424.248 266.628 427.096 266.628Z" fill="#86C1E9"/>
<path d="M258.692 211.943C261.54 211.943 263.849 209.638 263.849 206.794C263.849 203.951 261.54 201.646 258.692 201.646C255.844 201.646 253.535 203.951 253.535 206.794C253.535 209.638 255.844 211.943 258.692 211.943Z" fill="#86C1E9"/>
</g>
<defs>
<clipPath id="clip0_916_10434">
<rect width="507" height="376" fill="white"/>
</clipPath>
</defs>
</svg>
