<svg width="65" height="67" viewBox="0 0 65 67" fill="none" xmlns="http://www.w3.org/2000/svg">
<path d="M52.1896 15.3373C48.5875 13.6323 44.6875 12.3948 40.625 11.6798C40.5894 11.6787 40.5539 11.6854 40.5212 11.6997C40.4884 11.714 40.4592 11.7353 40.4354 11.7623C39.9479 12.6698 39.3792 13.8523 39 14.7598C34.691 14.0998 30.309 14.0998 26 14.7598C25.6208 13.8248 25.0521 12.6698 24.5375 11.7623C24.5104 11.7073 24.4292 11.6798 24.3479 11.6798C20.2854 12.3948 16.4125 13.6323 12.7833 15.3373C12.7563 15.3373 12.7292 15.3648 12.7021 15.3923C5.33542 26.5848 3.30417 37.4748 4.30625 48.2548C4.30625 48.3098 4.33334 48.3648 4.3875 48.3923C9.2625 52.0223 13.9479 54.2223 18.5792 55.6798C18.6604 55.7073 18.7417 55.6798 18.7688 55.6248C19.8521 54.1123 20.8271 52.5173 21.6667 50.8398C21.7208 50.7298 21.6667 50.6198 21.5583 50.5923C20.0146 49.9873 18.5521 49.2723 17.1167 48.4473C17.0083 48.3923 17.0083 48.2273 17.0896 48.1448C17.3875 47.9248 17.6854 47.6773 17.9833 47.4573C18.0375 47.4023 18.1188 47.4023 18.1729 47.4298C27.4896 51.7473 37.5375 51.7473 46.7458 47.4298C46.8 47.4023 46.8813 47.4023 46.9354 47.4573C47.2333 47.7048 47.5312 47.9248 47.8292 48.1723C47.9375 48.2548 47.9375 48.4198 47.8021 48.4748C46.3937 49.3273 44.9042 50.0148 43.3604 50.6198C43.2521 50.6473 43.225 50.7848 43.2521 50.8673C44.1188 52.5448 45.0938 54.1398 46.15 55.6523C46.2313 55.6798 46.3125 55.7073 46.3937 55.6798C51.0521 54.2223 55.7375 52.0223 60.6125 48.3923C60.6667 48.3648 60.6937 48.3098 60.6937 48.2548C61.8854 35.7973 58.7167 24.9898 52.2979 15.3923C52.2708 15.3648 52.2437 15.3373 52.1896 15.3373ZM23.075 41.6823C20.2854 41.6823 17.9563 39.0698 17.9563 35.8523C17.9563 32.6348 20.2313 30.0223 23.075 30.0223C25.9458 30.0223 28.2208 32.6623 28.1938 35.8523C28.1938 39.0698 25.9188 41.6823 23.075 41.6823ZM41.9521 41.6823C39.1625 41.6823 36.8333 39.0698 36.8333 35.8523C36.8333 32.6348 39.1083 30.0223 41.9521 30.0223C44.8229 30.0223 47.0979 32.6623 47.0708 35.8523C47.0708 39.0698 44.8229 41.6823 41.9521 41.6823Z" fill="#2F3030"/>
</svg>
