<svg width="50" height="50" viewBox="0 0 50 50" fill="none" xmlns="http://www.w3.org/2000/svg">
<path d="M23.7083 4.2063C22.1732 5.63676 20.9419 7.36177 20.0879 9.27842C19.2339 11.1951 18.7747 13.2641 18.7377 15.3621C18.7007 17.4601 19.0866 19.544 19.8724 21.4896C20.6583 23.4352 21.828 25.2025 23.3117 26.6863C24.7954 28.17 26.5628 29.3397 28.5084 30.1255C30.454 30.9114 32.5379 31.2973 34.6359 31.2603C36.7339 31.2233 38.8029 30.7641 40.7195 29.9101C42.6362 29.0561 44.3612 27.8248 45.7917 26.2896C45.4655 31.5816 43.133 36.5499 39.27 40.1815C35.4069 43.8131 30.3041 45.8344 25.0021 45.8334C13.4937 45.8334 4.16666 36.5063 4.16666 25C4.16666 13.9271 12.8042 4.87297 23.7083 4.2063Z" fill="#2F3030"/>
</svg>
