<svg width="66" height="67" viewBox="0 0 66 67" fill="none" xmlns="http://www.w3.org/2000/svg">
<path d="M61.765 17.1799C59.6475 18.1424 57.365 18.7749 55 19.0774C57.42 17.6199 59.29 15.3099 60.17 12.5324C57.8875 13.9074 55.3575 14.8699 52.69 15.4199C50.5175 13.0549 47.465 11.6799 44 11.6799C37.5375 11.6799 32.2575 16.9599 32.2575 23.4774C32.2575 24.4124 32.3675 25.3199 32.56 26.1724C22.77 25.6774 14.0525 20.9749 8.25 13.8524C7.2325 15.5849 6.655 17.6199 6.655 19.7649C6.655 23.8624 8.7175 27.4924 11.9075 29.5549C9.955 29.5549 8.14 29.0049 6.545 28.1799V28.2624C6.545 33.9824 10.615 38.7674 16.005 39.8399C14.2745 40.3135 12.4578 40.3794 10.6975 40.0324C11.4444 42.3768 12.9072 44.4281 14.8803 45.898C16.8534 47.3679 19.2375 48.1826 21.6975 48.2274C17.5275 51.5286 12.3585 53.313 7.04 53.2874C6.105 53.2874 5.17 53.2324 4.235 53.1224C9.46 56.4774 15.675 58.4299 22.33 58.4299C44 58.4299 55.9075 40.4449 55.9075 24.8524C55.9075 24.3299 55.9075 23.8349 55.88 23.3124C58.19 21.6624 60.17 19.5724 61.765 17.1799Z" fill="#2F3030"/>
</svg>
