<svg width="32" height="32" viewBox="0 0 32 32" fill="none" xmlns="http://www.w3.org/2000/svg">
<path d="M20.7977 13.5787C21.0357 13.8166 21.2674 14.0484 21.4476 14.2606C21.6456 14.4938 21.8583 14.7896 21.9838 15.1759C22.1579 15.7115 22.1579 16.2884 21.9838 16.824C21.8583 17.2103 21.6456 17.5062 21.4476 17.7393C21.2674 17.9516 21.0357 18.1832 20.7977 18.4211L18.2761 20.9428C17.7554 21.4635 16.9112 21.4635 16.3905 20.9428C15.8698 20.4221 15.8698 19.5778 16.3905 19.0571L18.1143 17.3333H5.33335C4.59697 17.3333 4.00002 16.7363 4.00002 16C4.00002 15.2636 4.59697 14.6666 5.33335 14.6666H18.1143L16.3905 12.9428C15.8698 12.4221 15.8698 11.5778 16.3905 11.0571C16.9112 10.5364 17.7554 10.5364 18.2761 11.0571L20.7977 13.5787Z" fill="#FBFCFC"/>
<path d="M10.6667 6.93329C10.6667 5.43982 10.6667 4.69308 10.9573 4.12265C11.213 3.62089 11.6209 3.21294 12.1227 2.95728C12.6931 2.66663 13.4399 2.66663 14.9333 2.66663H22.4C23.8935 2.66663 24.6402 2.66663 25.2107 2.95728C25.7124 3.21294 26.1204 3.62089 26.376 4.12265C26.6667 4.69308 26.6667 5.43982 26.6667 6.93329V25.0666C26.6667 26.5601 26.6667 27.3068 26.376 27.8773C26.1204 28.379 25.7124 28.787 25.2107 29.0426C24.6402 29.3333 23.8935 29.3333 22.4 29.3333H14.9333C13.4399 29.3333 12.6931 29.3333 12.1227 29.0426C11.6209 28.787 11.213 28.379 10.9573 27.8773C10.6667 27.3068 10.6667 26.5601 10.6667 25.0666V20H13.3333C13.3333 21.0237 13.7238 22.0473 14.5049 22.8284C16.067 24.3905 18.5996 24.3905 20.1617 22.8284L22.7149 20.2752C22.9289 20.0614 23.2282 19.7624 23.4806 19.4651C23.7864 19.1049 24.2426 18.5017 24.52 17.6481C24.868 16.5769 24.868 15.423 24.52 14.3519C24.2426 13.4982 23.7864 12.8951 23.4805 12.5348C23.2281 12.2375 22.9289 11.9385 22.7149 11.7247L20.1617 9.17153C18.5996 7.60943 16.067 7.60944 14.5049 9.17153C13.7238 9.95258 13.3333 10.9763 13.3333 12H10.6667V6.93329Z" fill="#FBFCFC"/>
</svg>
