<svg width="32" height="32" viewBox="0 0 32 32" fill="none" xmlns="http://www.w3.org/2000/svg">
<path d="M6.00002 23.3334H8.66668V27.3334H6.00002V23.3334Z" fill="#FBFCFC"/>
<path d="M27.9973 18.6667H4.00268C3.29473 18.6667 2.61577 18.9479 2.11517 19.4485C1.61458 19.9491 1.33334 20.6281 1.33334 21.336V29.3307C1.33334 29.6813 1.40239 30.0284 1.53653 30.3522C1.67068 30.6761 1.8673 30.9703 2.11517 31.2182C2.36304 31.4661 2.65731 31.6627 2.98117 31.7969C3.30503 31.931 3.65214 32 4.00268 32H27.9973C28.7053 32 29.3843 31.7188 29.8848 31.2182C30.3854 30.7176 30.6667 30.0387 30.6667 29.3307V21.336C30.6667 20.6281 30.3854 19.9491 29.8848 19.4485C29.3843 18.9479 28.7053 18.6667 27.9973 18.6667ZM10.6667 27.3334C10.6716 27.5974 10.6232 27.8596 10.5244 28.1045C10.4256 28.3493 10.2785 28.5718 10.0918 28.7585C9.90507 28.9452 9.68264 29.0923 9.43779 29.1911C9.19293 29.2899 8.93066 29.3383 8.66668 29.3334H4.00001V21.3334H8.66668C8.93066 21.3285 9.19293 21.3769 9.43779 21.4757C9.68264 21.5744 9.90507 21.7216 10.0918 21.9083C10.2785 22.095 10.4256 22.3174 10.5244 22.5623C10.6232 22.8071 10.6716 23.0694 10.6667 23.3334V27.3334ZM19.3333 29.3334H17.7333L14.3333 24.6667V29.3334H12.6667V21.3334H14.3333L17.6667 26V21.3334H19.3333V29.3334ZM28 23.36H23.3333V24.3467H26.6667C27.0203 24.3467 27.3594 24.4872 27.6095 24.7372C27.8595 24.9873 28 25.3264 28 25.68V28C28 28.3537 27.8595 28.6928 27.6095 28.9429C27.3594 29.1929 27.0203 29.3334 26.6667 29.3334H21.3333V27.3334H26.0133V26.3467H22.6667C22.3131 26.3467 21.9739 26.2062 21.7239 25.9562C21.4738 25.7061 21.3333 25.367 21.3333 25.0134V22.6667C21.3333 22.3131 21.4738 21.974 21.7239 21.7239C21.9739 21.4739 22.3131 21.3334 22.6667 21.3334H28V23.36ZM5.68001 16C5.45574 15.1287 5.33931 14.2331 5.33334 13.3334C5.33931 12.4337 5.45574 11.5381 5.68001 10.6667H10.1867C10.0705 11.551 10.0082 12.4415 10 13.3334C10.0082 14.2252 10.0705 15.1158 10.1867 16H12.88C12.7483 15.117 12.677 14.2261 12.6667 13.3334C12.6765 12.4406 12.7478 11.5496 12.88 10.6667H19.12C19.2522 11.5497 19.3235 12.4406 19.3333 13.3334C19.323 14.2261 19.2517 15.117 19.12 16H21.8133C21.9295 15.1158 21.9919 14.2252 22 13.3334C21.9919 12.4415 21.9295 11.551 21.8133 10.6667H26.32C26.5443 11.5381 26.6608 12.4336 26.6667 13.3334C26.6608 14.2331 26.5443 15.1287 26.32 16H29.0653C29.4591 14.0634 29.4174 12.0634 28.9433 10.1448C28.4692 8.22627 27.5745 6.43708 26.324 4.90674C25.0735 3.3764 23.4985 2.14318 21.7128 1.29632C19.9272 0.449457 17.9756 0.0101318 15.9993 0.0101318C14.0231 0.0101318 12.0715 0.449457 10.2858 1.29632C8.5002 2.14318 6.92515 3.3764 5.67464 4.90674C4.42414 6.43708 3.52947 8.22627 3.05537 10.1448C2.58126 12.0634 2.53958 14.0634 2.93334 16H5.68001ZM25.2267 8.00005H21.2933C20.876 6.34866 20.2581 4.75457 19.4533 3.25338C21.8855 4.09072 23.9349 5.77568 25.2267 8.00005ZM16 2.72005C17.12 4.3359 17.9794 6.1176 18.5467 8.00005H13.4533C14.0206 6.1176 14.88 4.3359 16 2.72005ZM12.5467 3.25338C11.7419 4.75456 11.124 6.34865 10.7067 8.00005H6.77334C8.06112 5.77228 10.112 4.08614 12.5467 3.25338Z" fill="#FBFCFC"/>
</svg>
