<svg width="33" height="32" viewBox="0 0 33 32" fill="none" xmlns="http://www.w3.org/2000/svg">
<path d="M15 28C12.7778 28 10.8889 27.2222 9.33336 25.6666C7.77781 24.1111 7.00003 22.2222 7.00003 20V12L13.6667 18.6666L11.8 20.5666L9.6667 18.4333V20C9.6667 21.4666 10.1889 22.7222 11.2334 23.7666C12.2778 24.8111 13.5334 25.3333 15 25.3333C16.4667 25.3333 17.7223 24.8111 18.7667 23.7666C19.8111 22.7222 20.3334 21.4666 20.3334 20V15.7666C19.5556 15.4777 18.9165 14.9946 18.416 14.3173C17.9156 13.64 17.6658 12.8675 17.6667 12C17.6667 11.1333 17.9169 10.3608 18.4174 9.68263C18.9178 9.0044 19.5565 8.52174 20.3334 8.23463V2.66663H23V8.23329C23.7778 8.52218 24.4169 9.00574 24.9174 9.68396C25.4178 10.3622 25.6676 11.1342 25.6667 12C25.6667 12.8666 25.4165 13.6444 24.916 14.3333C24.4156 15.0222 23.7769 15.5 23 15.7666V20C23 22.2222 22.2223 24.1111 20.6667 25.6666C19.1111 27.2222 17.2223 28 15 28Z" fill="#FBFCFC"/>
</svg>
