<svg width="33" height="32" viewBox="0 0 33 32" fill="none" xmlns="http://www.w3.org/2000/svg">
<path d="M16.6667 29.3333C13.5778 28.5555 11.0276 26.7831 9.016 24.016C7.00445 21.2488 5.99911 18.1768 6 14.8V6.66663L16.6667 2.66663L27.3333 6.66663V14.8C27.3333 18.1777 26.3276 21.2502 24.316 24.0173C22.3044 26.7844 19.7547 28.5564 16.6667 29.3333ZM16.6667 26.5333C18.8222 25.8666 20.6222 24.5497 22.0667 22.5826C23.5111 20.6155 24.3556 18.4213 24.6 16H16.6667V5.49996L8.66667 8.49996V15.4C8.66667 15.5555 8.68889 15.7555 8.73333 16H16.6667V26.5333Z" fill="#FBFCFC"/>
</svg>
