<svg width="33" height="32" viewBox="0 0 33 32" fill="none" xmlns="http://www.w3.org/2000/svg">
<g clip-path="url(#clip0_903_25039)">
<path d="M2.28536 0L0.333359 1.952L5.22936 6.848C2.98401 9.61305 1.84312 13.1122 2.02711 16.6693C2.2111 20.2264 3.70691 23.5892 6.22555 26.1078C8.74419 28.6264 12.1069 30.1223 15.6641 30.3062C19.2212 30.4902 22.7203 29.3493 25.4854 27.104L30.3814 32L32.3334 30.048L2.28536 0ZM8.33336 17.6V14.4H12.7814L15.9814 17.6H8.33336ZM16.3334 1.6C13.9535 1.60391 11.6117 2.19761 9.51736 3.328L20.5894 14.4H24.3334V17.6H23.7894L29.0054 22.816C30.1837 20.6231 30.7734 18.1623 30.7169 15.6735C30.6605 13.1848 29.9598 10.7531 28.6833 8.61595C27.4068 6.47876 25.5981 4.70899 23.4336 3.47935C21.2691 2.24971 18.8228 1.6022 16.3334 1.6Z" fill="#FBFCFC"/>
</g>
<defs>
<clipPath id="clip0_903_25039">
<rect width="32" height="32" fill="white" transform="translate(0.333359)"/>
</clipPath>
</defs>
</svg>
