<svg width="311" height="311" viewBox="0 0 311 311" fill="none" xmlns="http://www.w3.org/2000/svg">
<path d="M155.5 19.4375C191.586 19.4375 226.194 33.7726 251.711 59.2893C277.227 84.8059 291.562 119.414 291.562 155.5C291.562 191.586 277.227 226.194 251.711 251.711C226.194 277.227 191.586 291.562 155.5 291.562C119.414 291.562 84.8059 277.227 59.2893 251.711C33.7726 226.194 19.4375 191.586 19.4375 155.5C19.4375 119.414 33.7726 84.8059 59.2893 59.2893C84.8059 33.7726 119.414 19.4375 155.5 19.4375ZM138.55 182.343L108.325 152.098C107.242 151.015 105.955 150.155 104.539 149.569C103.124 148.982 101.606 148.681 100.074 148.681C98.5416 148.681 97.0242 148.982 95.6084 149.569C94.1927 150.155 92.9063 151.015 91.8227 152.098C89.6344 154.287 88.405 157.255 88.405 160.35C88.405 163.444 89.6344 166.413 91.8227 168.601L130.309 207.087C131.39 208.176 132.675 209.04 134.091 209.63C135.507 210.22 137.026 210.524 138.56 210.524C140.094 210.524 141.613 210.22 143.029 209.63C144.446 209.04 145.731 208.176 146.811 207.087L226.505 127.374C227.603 126.295 228.477 125.009 229.075 123.591C229.674 122.172 229.986 120.65 229.993 119.11C230 117.571 229.703 116.045 229.117 114.621C228.532 113.197 227.67 111.903 226.582 110.814C225.494 109.725 224.201 108.862 222.778 108.275C221.355 107.688 219.83 107.388 218.29 107.393C216.751 107.399 215.228 107.709 213.808 108.306C212.389 108.903 211.103 109.775 210.022 110.871L138.55 182.343Z" fill="#3598DB"/>
</svg>
