<svg width="99" height="99" viewBox="0 0 99 99" fill="none" xmlns="http://www.w3.org/2000/svg">
<path d="M84.9338 41.25H52.1813C50.1866 35.601 46.212 30.8664 40.9937 27.9236C35.7755 24.9807 29.6674 24.0291 23.8013 25.245C14.355 27.1425 6.68253 34.7325 4.70253 44.1375C3.90105 47.7559 3.92212 51.508 4.76418 55.1171C5.60623 58.7262 7.24779 62.1003 9.56777 64.9903C11.8878 67.8804 14.827 70.2128 18.1686 71.8154C21.5102 73.418 25.169 74.25 28.875 74.25C33.9898 74.2502 38.9786 72.6631 43.1531 69.7077C47.3276 66.7523 50.482 62.5743 52.1813 57.75H53.625L58.9463 63.0713C60.555 64.68 63.1538 64.68 64.7625 63.0713L70.125 57.75L75.4463 63.0713C77.055 64.68 79.695 64.68 81.3038 63.0713L91.9875 52.305C92.372 51.9191 92.6761 51.4608 92.8823 50.9566C93.0885 50.4524 93.1927 49.9124 93.1889 49.3676C93.185 48.8229 93.0732 48.2844 92.8599 47.7832C92.6467 47.2819 92.3361 46.828 91.9463 46.4475L87.8625 42.4463C87.0375 41.6625 86.0063 41.25 84.9338 41.25ZM28.875 61.875C22.0688 61.875 16.5 56.3063 16.5 49.5C16.5 42.6938 22.0688 37.125 28.875 37.125C35.6813 37.125 41.25 42.6938 41.25 49.5C41.25 56.3063 35.6813 61.875 28.875 61.875Z" fill="#FBFCFC"/>
</svg>
